<?xml version="1.0" encoding="UTF-8"?>
<svg width="512px" height="512px" viewBox="0 0 512 512" xmlns="http://www.w3.org/2000/svg" xmlns:xlink="http://www.w3.org/1999/xlink" version="1.1">
 <!-- Generated by Pixelmator Pro 1.3 -->
 <path id="path" d="M161.962 432.578 C152.733 432.578 144.056 436.172 137.53 442.699 L101.804 478.425 C94.2 486.029 84.089 490.217 73.334 490.217 62.58 490.217 52.469 486.029 44.864 478.424 37.26 470.82 33.072 460.709 33.072 449.954 33.072 439.2 37.26 429.089 44.864 421.484 L49.944 416.403 50.229 416.688 C55.187 421.645 61.698 424.124 68.21 424.124 74.722 424.124 81.234 421.645 86.191 416.688 L91.178 411.701 C93.368 412.547 95.688 412.972 98.011 412.972 102.468 412.972 106.933 411.407 110.504 408.248 L332.424 212.003 C335.527 209.259 335.818 204.52 333.074 201.417 330.331 198.314 325.59 198.022 322.488 200.767 L161.04 343.537 112.206 294.703 254.269 134.054 C257.013 130.951 256.722 126.211 253.619 123.468 250.515 120.724 245.775 121.014 243.033 124.118 L47.492 345.237 C42.689 350.669 41.571 358.17 44.04 364.563 L39.053 369.55 C29.138 379.465 29.138 395.597 39.053 405.512 L39.337 405.796 34.256 410.877 C12.709 432.423 12.709 467.483 34.256 489.03 55.803 510.577 90.863 510.576 112.409 489.03 L148.135 453.304 C151.828 449.611 156.738 447.577 161.961 447.577 167.184 447.577 172.094 449.611 175.787 453.304 183.411 460.928 183.411 473.332 175.787 480.956 L161.68 495.064 C158.751 497.993 158.751 502.742 161.68 505.67 163.144 507.135 165.064 507.867 166.983 507.867 168.902 507.867 170.822 507.135 172.286 505.67 L186.393 491.562 C199.865 478.09 199.865 456.169 186.393 442.697 179.868 436.172 171.191 432.578 161.962 432.578 Z M60.835 406.081 L49.66 394.906 C45.594 390.84 45.594 384.223 49.66 380.156 L53.511 376.305 79.436 402.23 75.584 406.082 C71.518 410.147 64.902 410.147 60.835 406.081 Z M149.781 353.491 L133.799 367.624 88.116 321.941 102.249 305.959 149.781 353.491 Z M58.729 355.174 L78.161 333.2 122.541 377.58 100.566 397.012 C99.039 398.361 96.711 398.292 95.268 396.849 L58.891 360.472 C57.449 359.029 57.378 356.702 58.729 355.174 Z" fill="#dc5f2f" fill-opacity="1" stroke="none"/>
 <path id="path-1" d="M485.414 301.253 L343.455 266.491 C340.111 265.672 336.639 266.42 333.93 268.546 331.221 270.671 329.667 273.865 329.667 277.309 L329.667 405.182 C323.448 401.804 315.699 399.825 307.205 399.825 286.198 399.825 269.743 411.926 269.743 427.374 269.743 442.822 286.199 454.923 307.205 454.923 328.211 454.923 344.667 442.822 344.667 427.374 L344.667 330.36 478.903 362.545 478.903 462.26 C472.684 458.882 464.935 456.903 456.441 456.903 435.434 456.903 418.979 469.004 418.979 484.451 418.979 499.898 435.434 512 456.441 512 477.448 512 493.903 499.899 493.903 484.451 L493.903 312.071 C493.903 306.925 490.412 302.476 485.414 301.253 Z M307.204 439.923 C293.967 439.923 284.742 433.31 284.742 427.374 284.742 421.438 293.967 414.825 307.204 414.825 320.441 414.825 329.666 421.438 329.666 427.374 329.666 433.31 320.442 439.923 307.204 439.923 Z M344.667 282.231 L478.903 315.101 478.903 347.119 344.667 314.934 344.667 282.231 Z M456.441 497 C443.204 497 433.979 490.387 433.979 484.451 433.979 478.516 443.204 471.903 456.441 471.903 469.678 471.903 478.903 478.516 478.903 484.451 478.903 490.387 469.678 497 456.441 497 Z" fill="#dc5f2f" fill-opacity="1" stroke="none"/>
 <path id="path-2" d="M261.975 107.881 C261.976 107.883 261.976 107.885 261.977 107.887 261.99 107.933 262.004 107.98 262.018 108.026 262.029 108.063 262.041 108.099 262.052 108.136 262.056 108.149 262.06 108.161 262.064 108.174 262.184 108.544 262.331 108.901 262.503 109.241 279.913 146.024 309.743 175.848 346.53 193.252 346.831 193.403 347.144 193.534 347.468 193.644 347.471 193.645 347.474 193.646 347.477 193.647 347.514 193.66 347.551 193.671 347.588 193.683 348.193 193.879 348.809 193.994 349.423 194.032 352.484 194.318 355.536 194.459 358.576 194.459 384.274 194.459 408.896 184.346 427.263 165.978 445.627 147.614 455.741 123.198 455.741 97.227 455.741 71.256 445.627 46.84 427.263 28.476 408.899 10.113 384.483 0 358.512 0 332.542 0 308.125 10.113 289.762 28.478 269.222 49.018 259.006 77.375 261.708 106.315 261.74 106.838 261.828 107.363 261.975 107.881 Z M416.656 39.084 C432.187 54.615 440.74 75.265 440.74 97.229 440.74 112.206 436.763 126.571 429.309 139.119 409.993 133.177 384.836 116.169 362.204 93.537 339.569 70.902 322.563 45.747 316.622 26.431 329.171 18.977 343.536 15 358.512 15 380.476 15 401.126 23.553 416.656 39.084 Z M300.368 39.084 C301.532 37.92 302.724 36.796 303.944 35.711 311.69 56.611 328.818 81.363 351.598 104.143 374.376 126.921 399.13 144.05 420.03 151.797 418.945 153.017 417.821 154.209 416.657 155.373 399.541 172.49 376.005 181.133 351.893 179.191 319.057 163.363 292.378 136.684 276.55 103.848 274.611 79.741 283.251 56.202 300.368 39.084 Z" fill="#dc5f2f" fill-opacity="1" stroke="none"/>
</svg>
