<?xml version="1.0" encoding="UTF-8"?>
<svg width="477px" height="478px" viewBox="0 0 477 478" xmlns="http://www.w3.org/2000/svg" xmlns:xlink="http://www.w3.org/1999/xlink" version="1.1">
 <!-- Generated by Pixelmator Pro 1.3 -->
 <path id="path" d="M431.629 396.017 L384.293 348.666 384.293 8.56 C384.293 4.142 380.711 0.56 376.293 0.56 L136.293 0.56 C136.141 0.56 135.996 0.638 135.844 0.65 135.109 0.685 134.383 0.833 133.691 1.079 133.457 1.15 133.223 1.232 132.996 1.329 132.105 1.712 131.293 2.255 130.598 2.927 L34.598 98.927 C33.926 99.607 33.383 100.4 32.996 101.271 32.883 101.521 32.82 101.767 32.73 102.025 32.5 102.689 32.363 103.38 32.324 104.079 32.324 104.255 32.219 104.408 32.219 104.583 L32.219 408.56 C32.219 412.978 35.801 416.56 40.219 416.56 L316.394 416.56 363.738 463.88 C372.703 472.947 384.933 478.032 397.683 478.001 417.117 478.017 434.641 466.314 442.074 448.357 449.504 430.404 445.379 409.74 431.621 396.017 Z M363.813 441.361 L239.293 316.88 284.613 271.552 409.094 396.08 Z M232.523 301.017 L221.676 253.951 268.75 264.791 Z M128.293 27.873 L128.293 96.56 59.605 96.56 Z M48.293 400.56 L48.293 112.56 136.293 112.56 C140.711 112.56 144.293 108.978 144.293 104.56 L144.293 16.56 368.293 16.56 368.293 332.658 290.277 254.583 290.187 254.529 C289.527 253.9 288.766 253.388 287.933 253.017 287.707 252.919 287.492 252.849 287.269 252.767 286.988 252.642 286.703 252.533 286.41 252.439 L212.812 235.482 C210.121 234.857 207.301 235.665 205.348 237.615 203.394 239.568 202.59 242.392 203.211 245.079 L220.172 318.681 C220.266 318.974 220.375 319.263 220.5 319.544 220.582 319.759 220.644 319.974 220.75 320.193 221.117 321.036 221.637 321.81 222.277 322.47 L222.316 322.536 300.387 400.56 Z M420.293 452.599 C414.309 458.603 406.18 461.978 397.703 461.978 389.227 461.978 381.098 458.603 375.117 452.599 L378.883 448.826 420.363 407.353 C426.367 413.345 429.738 421.486 429.723 429.97 429.711 438.455 426.316 446.583 420.293 452.56 Z M420.293 452.599" fill="#83b594" fill-opacity="1" stroke="none"/>
 <path id="path-1" d="M104.293 160.56 L312.293 160.56 C316.711 160.56 320.293 156.978 320.293 152.56 320.293 148.142 316.711 144.56 312.293 144.56 L104.293 144.56 C99.875 144.56 96.293 148.142 96.293 152.56 96.293 156.978 99.875 160.56 104.293 160.56 Z M104.293 160.56" fill="#83b594" fill-opacity="1" stroke="none"/>
 <path id="path-2" d="M104.293 208.56 L312.293 208.56 C316.711 208.56 320.293 204.978 320.293 200.56 320.293 196.142 316.711 192.56 312.293 192.56 L104.293 192.56 C99.875 192.56 96.293 196.142 96.293 200.56 96.293 204.978 99.875 208.56 104.293 208.56 Z M104.293 208.56" fill="#83b594" fill-opacity="1" stroke="none"/>
 <path id="path-3" d="M160.293 240.56 L104.293 240.56 C99.875 240.56 96.293 244.142 96.293 248.56 96.293 252.978 99.875 256.56 104.293 256.56 L160.293 256.56 C164.711 256.56 168.293 252.978 168.293 248.56 168.293 244.142 164.711 240.56 160.293 240.56 Z M160.293 240.56" fill="#83b594" fill-opacity="1" stroke="none"/>
</svg>
