<?xml version="1.0" encoding="UTF-8"?>
<svg width="613px" height="612px" viewBox="0 0 613 612" xmlns="http://www.w3.org/2000/svg" xmlns:xlink="http://www.w3.org/1999/xlink" version="1.1">
 <!-- Generated by Pixelmator Pro 1.3 -->
 <path id="path" d="M230.504 293.402 C303.43 293.402 362.547 234.285 362.547 161.359 362.547 88.426 303.43 29.313 230.504 29.313 157.578 29.313 98.457 88.426 98.457 161.359 98.523 234.254 157.602 293.336 230.504 293.402 Z M230.504 54.297 C289.633 54.297 337.563 102.227 337.563 161.359 337.563 220.484 289.633 268.418 230.504 268.418 171.371 268.418 123.441 220.484 123.441 161.359 123.508 102.258 171.402 54.363 230.504 54.297 Z M230.504 54.297" fill="#545e7e" fill-opacity="1" stroke="none"/>
 <path id="path-1" d="M590.789 410.836 C582.668 370.73 553.437 344.871 516.336 344.871 498.719 344.871 479.98 350.996 461.742 362.738 443.254 350.496 424.637 344.25 406.523 344.25 387.738 344.019 369.633 351.25 356.18 364.363 319.883 337.398 275.844 322.891 230.629 323.012 L230.254 323.012 C173.035 323.137 119.941 345.375 80.59 385.852 40.742 426.828 18.879 482.668 19 543.258 19.019 550.148 24.601 555.73 31.492 555.75 L405.023 555.125 C420.43 565.355 436.891 573.898 454.121 580.609 454.371 580.734 454.496 580.734 454.746 580.863 456.953 581.652 459.273 582.078 461.617 582.113 463.957 582.086 466.285 581.668 468.488 580.863 468.734 580.734 468.984 580.734 469.238 580.609 568.18 540.512 601.66 466.555 590.789 410.836 Z M44.363 530.637 C46.988 481.547 65.976 436.695 98.578 403.34 133.187 367.734 180.035 348.121 230.375 348.121 L230.75 348.121 C270.621 347.992 309.453 360.793 341.437 384.602 337.105 392.914 334.074 401.852 332.445 411.082 325.32 448.063 337.441 492.789 374.664 530.266 Z M461.617 556.75 C377.164 522.645 348.183 461.43 356.926 415.707 362.301 387.098 381.414 369.359 406.523 369.359 421.265 369.359 437.754 375.855 454.121 387.973 458.539 391.199 464.516 391.246 468.984 388.098 485.351 376.23 501.719 369.984 516.457 369.984 541.57 369.984 560.683 387.598 566.43 415.832 578.422 478.297 522.703 531.391 461.617 556.75 Z M461.617 556.75" fill="#545e7e" fill-opacity="1" stroke="none"/>
</svg>
